<svg xmlns="http://www.w3.org/2000/svg" viewBox="0 0 80.48 150"><defs><style>.cls-1{fill:#2d2b2c;}.cls-2{fill:#292627;}.cls-3{fill:#2c292a;}.cls-4{fill:#2e2c2d;}.cls-5{fill:#f6932b;}.cls-6{fill:#ffe000;}.cls-7{fill:#53b748;}.cls-8{fill:#2e65af;}.cls-9{fill:#21429a;}.cls-10{fill:#6d2d90;}.cls-11{fill:#ec2025;}.cls-12{fill:#302d2f;}.cls-13{fill:#333133;}.cls-14{fill:#312f30;}</style></defs><g id="Layer_2" data-name="Layer 2"><g id="Layer_1-2" data-name="Layer 1"><path class="cls-1" d="M5.29,76.41c.9-1.25,1.81-2.5,2.7-3.75,1.34-1.87,2.69-3.73,4-5.65.12-.18.23-.36.34-.54s.09-.5-.26-.59a2.91,2.91,0,0,0-.78-.08,3.31,3.31,0,0,1-.55,0,.31.31,0,0,1-.3-.33.3.3,0,0,1,.31-.27l.3,0c1.41,0,2.82,0,4.22,0a4.19,4.19,0,0,1,.5,0,.32.32,0,0,1,.3.34.33.33,0,0,1-.26.37,2,2,0,0,1-.49,0,9.21,9.21,0,0,0-1,0,1.11,1.11,0,0,0-.81.41l-.27.36q-2.85,4.07-5.71,8.12c-.38.55-.39.56,0,1.1,2.55,3.68,4.87,7.49,7.14,11.34.29.5.63,1,.92,1.47a1.67,1.67,0,0,0,1.43.76,3.87,3.87,0,0,1,.68.12c.15,0,.27.13.25.32s-.16.27-.35.27H10.94a1,1,0,0,1-.49,0c-.09,0-.17-.09-.16-.22a.21.21,0,0,1,.13-.19,1.28,1.28,0,0,1,.47-.14,3.16,3.16,0,0,0,1-.23c.39-.16.45-.32.26-.69s-.56-1-.85-1.51c-1.92-3.25-3.94-6.44-5.95-9.63a.47.47,0,0,0-.09-.12c-.15.07-.09.2-.09.3v10a5.11,5.11,0,0,0,.08,1,.79.79,0,0,0,.68.69,6.07,6.07,0,0,0,.94.08c.24,0,.39.08.41.33s-.12.34-.42.36a2.09,2.09,0,0,1-.25,0H1.15a2.54,2.54,0,0,1-.39,0A.3.3,0,0,1,.48,90a.28.28,0,0,1,.2-.31,1.48,1.48,0,0,1,.58-.13c.15,0,.3,0,.45,0a.81.81,0,0,0,.82-.92c0-.65,0-1.29,0-1.94v-20A.65.65,0,0,0,2.1,66a2.62,2.62,0,0,0-.78-.14c-.18,0-.36,0-.54-.06a.32.32,0,0,1-.3-.34c0-.2.15-.28.33-.29h.25a41.45,41.45,0,0,0,5.46,0,1.34,1.34,0,0,1,.49,0,.34.34,0,0,1,.28.36.29.29,0,0,1-.28.3l-.39,0c-.16,0-.33,0-.5,0-.75.06-.88.19-.91.93q0,.52,0,1v8.52Z"/><path class="cls-2" d="M40.26,76.83c0,.15.12.15.2.16a7.52,7.52,0,0,1,1.72.62,4.7,4.7,0,0,1,2.3,2.56,16.56,16.56,0,0,1,.8,3.32c.19,1.3.26,2.61.39,3.91a4.76,4.76,0,0,0,.44,1.77,1.07,1.07,0,0,0,.91.68c.37,0,.44-.07.36-.45a1.62,1.62,0,0,1,0-.79.48.48,0,0,1,.47-.43.55.55,0,0,1,.6.34,1.46,1.46,0,0,1-.93,2,3,3,0,0,1-2.64-.5,3.76,3.76,0,0,1-.93-1,6.87,6.87,0,0,1-1.12-3.15c-.14-1.56-.27-3.13-.41-4.7A6.88,6.88,0,0,0,42,79.3a2.84,2.84,0,0,0-1.91-1.8,5.15,5.15,0,0,0-1.61-.24c-.11.09-.07.22-.07.33V88.47c0,.7.25,1,1,1.07a8.93,8.93,0,0,0,1,.07c.18,0,.33.06.37.26s-.13.31-.35.34a1.34,1.34,0,0,1-.2,0h-6a.79.79,0,0,1-.43-.08c-.2-.13-.2-.31,0-.42a1.16,1.16,0,0,1,.49-.1c.31,0,.62,0,.93-.11a.59.59,0,0,0,.56-.6c0-.29.05-.59.05-.89q0-10.19,0-20.37a7.88,7.88,0,0,0-.09-1.09c-.06-.47-.18-.59-.64-.69a4.9,4.9,0,0,0-.93-.1c-.39,0-.56-.14-.56-.36s.19-.34.61-.32a48.29,48.29,0,0,0,5,.08c.58,0,1.16-.12,1.74-.1a5.72,5.72,0,0,1,2.16.49,4.66,4.66,0,0,1,2.58,3.11,7.05,7.05,0,0,1,0,4,5.54,5.54,0,0,1-4.3,4A5.85,5.85,0,0,0,40.26,76.83ZM38.4,71.58c0,1.52,0,3,0,4.57,0,.25.06.37.33.33l.79-.08a3.48,3.48,0,0,0,3.27-2.78,11.21,11.21,0,0,0,.14-4.72,4.87,4.87,0,0,0-.35-1.24,2.8,2.8,0,0,0-3.23-1.79.92.92,0,0,0-.9.85,3.94,3.94,0,0,0-.05.69Z"/><path class="cls-2" d="M56,76.83c0,.17.14.15.23.17a7,7,0,0,1,1.72.63,4.67,4.67,0,0,1,2.26,2.53,15.39,15.39,0,0,1,.8,3.33c.2,1.31.27,2.63.4,4a4.69,4.69,0,0,0,.46,1.76,1,1,0,0,0,.87.65c.38,0,.46-.07.38-.44a1.76,1.76,0,0,1,0-.79.5.5,0,0,1,.47-.44.55.55,0,0,1,.6.33,1.46,1.46,0,0,1-.92,2,3,3,0,0,1-2.64-.5,3.58,3.58,0,0,1-.93-1,6.89,6.89,0,0,1-1.13-3.15c-.14-1.57-.27-3.13-.4-4.7a7.81,7.81,0,0,0-.31-1.6,3,3,0,0,0-2.38-2.15,5.59,5.59,0,0,0-1.23-.14c-.12.1-.07.25-.07.37V88.46c0,.71.24,1,.94,1.08a9.24,9.24,0,0,0,1,.07c.21,0,.38.06.38.3s-.18.3-.39.3H50a1,1,0,0,1-.49-.06c-.11-.05-.2-.12-.19-.26s.09-.16.19-.2a1.26,1.26,0,0,1,.43-.08c.3,0,.6,0,.89-.1s.56-.21.61-.65a6.54,6.54,0,0,0,.06-.89V67.65a7.88,7.88,0,0,0-.08-1.09c-.07-.49-.19-.61-.68-.71a4,4,0,0,0-.84-.09.89.89,0,0,1-.39-.06.28.28,0,0,1-.21-.34.3.3,0,0,1,.29-.29,1.41,1.41,0,0,1,.29,0c1.56.08,3.11.14,4.67.09.71,0,1.42-.15,2.13-.1a4.78,4.78,0,0,1,4.44,3,5.11,5.11,0,0,1,.38,1.44,7.12,7.12,0,0,1-.27,3.43,5.62,5.62,0,0,1-4.69,3.78A1.89,1.89,0,0,0,56,76.83Zm-1.86-5.25v2.84c0,.59,0,1.19,0,1.78,0,.22.07.31.29.28l.84-.08a3.49,3.49,0,0,0,3.27-2.78,11.21,11.21,0,0,0,.24-4,6.06,6.06,0,0,0-.46-1.92,2.79,2.79,0,0,0-3.23-1.79.93.93,0,0,0-.9.85,4,4,0,0,0,0,.69C54.1,68.8,54.11,70.19,54.11,71.58Z"/><path class="cls-3" d="M31.25,64.92c.06,1.14.13,2.21.19,3.28s.13,1.85.19,2.78c0,.22.08.48-.19.61s-.31-.14-.4-.54c-.16-.76-.25-1.54-.48-2.28A7.32,7.32,0,0,0,30,67.34a2.27,2.27,0,0,0-1.68-1.18,16.84,16.84,0,0,0-2.92-.24c-.71,0-1.42,0-2.13,0-.43,0-.44,0-.44.43V76.46a8.27,8.27,0,0,0,1.49,0,9.89,9.89,0,0,0,2-.26,1.43,1.43,0,0,0,1.06-1,11.91,11.91,0,0,0,.48-2.78A3.09,3.09,0,0,1,28,71.7a.22.22,0,0,1,.22-.17c.09,0,.14.08.18.16a.82.82,0,0,1,.07.43c0,.45,0,.9,0,1.35-.12,2.61-.1,5.23,0,7.84,0,.23,0,.47,0,.7s0,.35-.24.38-.27-.16-.29-.32c-.06-.46-.12-.92-.16-1.38a10,10,0,0,0-.29-1.81,3.34,3.34,0,0,0-.34-.77A1.51,1.51,0,0,0,26,77.36a21.21,21.21,0,0,0-3-.11c-.17,0-.24.08-.23.24s0,.2,0,.3c0,3.68,0,7.35,0,11,0,.55-.1.55.52.54,1.69,0,3.38,0,5.07-.15a5.77,5.77,0,0,0,.93-.12,1.93,1.93,0,0,0,1.33-1,5.91,5.91,0,0,0,.67-2.12c.08-.57.12-1.15.18-1.72a1.33,1.33,0,0,1,.13-.53c0-.07.1-.14.2-.13a.2.2,0,0,1,.17.15,2.12,2.12,0,0,1,.09.79c-.08,1.44-.09,2.88-.1,4.32V90c0,.39,0,.39-.37.38-2.44-.07-4.87-.13-7.31-.13-1.83,0-3.67,0-5.51,0a1.1,1.1,0,0,1-.54-.06.24.24,0,0,1-.15-.28c0-.11.11-.15.22-.16.3,0,.59-.07.89-.09.72-.08.92-.27,1-1,0-.42,0-.83,0-1.25q0-10,0-20a9.84,9.84,0,0,0,0-1.09c-.05-.41-.15-.49-.56-.58a5.26,5.26,0,0,0-.89-.07,1.31,1.31,0,0,1-.34,0,.24.24,0,0,1-.2-.25.26.26,0,0,1,.18-.26,1.31,1.31,0,0,1,.59-.06H29A10,10,0,0,0,31.25,64.92Z"/><path class="cls-3" d="M44.6,46.78c-2.9,0-5.79-.07-8.68-.31a67.12,67.12,0,0,1-18-3.86A44.7,44.7,0,0,1,2.25,32.8C1.65,32.23,1.09,31.62.52,31a1.49,1.49,0,0,1-.23-.27.67.67,0,0,1,.13-.85.69.69,0,0,1,.83,0,2.83,2.83,0,0,1,.25.24A43.23,43.23,0,0,0,19.6,41.9a59.35,59.35,0,0,0,10,2.51,80.08,80.08,0,0,0,8.19.89,107.24,107.24,0,0,0,12.16,0q3.65-.18,7.28-.54c2.41-.24,4.8-.53,7.2-.85,3.52-.47,7-1,10.54-1.64,1.37-.23,2.73-.49,4.1-.74a2,2,0,0,1,.34,0,.65.65,0,0,1,.68.59.65.65,0,0,1-.5.7c-.5.12-1,.21-1.51.29-2.89.5-5.77,1-8.66,1.48-2.46.4-4.94.73-7.42,1-2.82.35-5.65.65-8.49.85S47.59,46.81,44.6,46.78Z"/><path class="cls-3" d="M36.75,128.36c.06.76.11,1.47.17,2.17.08,1,.17,1.92.26,2.87,0,0,0,.1,0,.15s0,.39-.22.43-.34-.11-.41-.29a3.36,3.36,0,0,1-.14-.48,9.31,9.31,0,0,0-.69-2.11,2.8,2.8,0,0,0-2.18-1.68A22.28,22.28,0,0,0,31,129.2c-1.28,0-2.55,0-3.83,0l-.21,0v8.92c.84,0,1.67,0,2.49-.05a14.17,14.17,0,0,0,1.72-.21,1.56,1.56,0,0,0,1.21-1.06,10,10,0,0,0,.47-2.23,1.34,1.34,0,0,1,.1-.43c.06-.11.13-.2.26-.19a.3.3,0,0,1,.27.25,2,2,0,0,1,0,.64c0,.6,0,1.19-.07,1.79a57.32,57.32,0,0,0,.07,5.86,2.8,2.8,0,0,1,0,.29c0,.18-.08.33-.28.35a.31.31,0,0,1-.35-.28c0-.23-.08-.46-.12-.69-.07-.45-.12-.91-.2-1.37a2.79,2.79,0,0,0-.45-1.1,1.89,1.89,0,0,0-1.26-.8,17.15,17.15,0,0,0-2-.11c-.49,0-1,0-1.49,0s-.4,0-.4.42v9.39c0,.4,0,.41.41.41,2.19,0,4.37,0,6.55-.15a5.29,5.29,0,0,0,.89-.12,2.42,2.42,0,0,0,1.65-1.32,6.23,6.23,0,0,0,.61-2.23,6.84,6.84,0,0,1,.12-.79c0-.16.13-.32.34-.3s.23.17.24.33a3.4,3.4,0,0,1,0,.45c0,1.55-.15,3.11-.12,4.66,0,.28-.09.33-.34.32-5-.19-10.06-.13-15.1-.14a1.68,1.68,0,0,1-.63-.08.17.17,0,0,1-.12-.2.24.24,0,0,1,.13-.13,2,2,0,0,1,.34,0c.38,0,.76,0,1.14-.1.59-.07.73-.21.81-.81a5.31,5.31,0,0,0,0-.69V130.17c0-1-.13-1.12-1.1-1.18h-.74a1.51,1.51,0,0,1-.3,0c-.11,0-.23-.07-.24-.21s.1-.19.21-.23a1.36,1.36,0,0,1,.49,0H34.69A11.06,11.06,0,0,0,36.75,128.36Z"/><path class="cls-4" d="M7.78,128.38h6.06a11.9,11.9,0,0,0,1.34-.08c.25,0,.32.06.33.29,0,.53.09,1,.13,1.58.06.93.15,1.85.29,2.77,0,.24,0,.49,0,.74a.29.29,0,0,1-.26.32.3.3,0,0,1-.31-.2,2.31,2.31,0,0,1-.15-.53,9,9,0,0,0-.55-1.95,3.36,3.36,0,0,0-3-2.14,38.47,38.47,0,0,0-4.92,0l-.89,0c-.14,0-.21.05-.2.2v8.55c0,.16,0,.24.22.24a20.93,20.93,0,0,0,4-.26,1.71,1.71,0,0,0,1.32-1.15,6.85,6.85,0,0,0,.38-1.84,2.54,2.54,0,0,1,.13-.73A.28.28,0,0,1,12,134a.3.3,0,0,1,.27.3,4.17,4.17,0,0,1,0,.5c-.13,2.05-.11,4.11-.08,6.16,0,.58.06,1.16.09,1.74,0,.4,0,.52-.28.54s-.33-.09-.39-.47-.15-1.05-.23-1.57c0-.21-.08-.42-.13-.63a1.92,1.92,0,0,0-1.79-1.59A20.57,20.57,0,0,0,6,138.86c-.24,0-.34.07-.34.34q0,4.41,0,8.8a1.08,1.08,0,0,0,1.12,1.18c.35,0,.7,0,1,0,.18,0,.46-.05.46.24s-.25.21-.42.24a1.94,1.94,0,0,1-.34,0H1a4.89,4.89,0,0,1-.55-.05.23.23,0,0,1-.22-.17c0-.14.11-.2.22-.23a3,3,0,0,1,.73-.11,4.93,4.93,0,0,0,.94-.11.54.54,0,0,0,.49-.54c0-.36.06-.72.06-1.09V130.17c0-.9-.14-1-1.06-1.1-.33,0-.67,0-1-.06-.17,0-.34-.09-.34-.29s.18-.26.36-.27a4,4,0,0,1,.49,0H7.78Z"/><path class="cls-2" d="M50.58,150a9.44,9.44,0,0,1-3.51-.78c-.31-.12-.61-.26-.92-.37-.61-.21-.77-.12-.9.5,0,.13,0,.26-.08.39a.32.32,0,0,1-.37.25.29.29,0,0,1-.3-.33c0-.34.06-.69.1-1a22,22,0,0,0,.1-4.51c0-.17,0-.34,0-.5a.36.36,0,0,1,.27-.42c.23,0,.34.11.4.29a2.41,2.41,0,0,1,.12.48,9.76,9.76,0,0,0,.8,2.75,4.38,4.38,0,0,0,2.81,2.47,5.41,5.41,0,0,0,2.85.05,3.15,3.15,0,0,0,2.29-2.08,5.12,5.12,0,0,0,0-3.41,4.55,4.55,0,0,0-1.47-2,12.75,12.75,0,0,0-2.43-1.53,20.56,20.56,0,0,1-2.29-1.28c-.35-.22-.68-.47-1-.71-3.21-2.31-2.59-7.76,1.1-9.48a5.57,5.57,0,0,1,4.11-.3c.49.15,1,.32,1.45.48.19.06.38.13.57.17.59.11.72,0,.88-.56a2.1,2.1,0,0,1,.06-.24.31.31,0,0,1,.36-.19.26.26,0,0,1,.24.28c0,.21,0,.43,0,.64a16.08,16.08,0,0,0,.07,3.86c0,.18,0,.37,0,.55a.25.25,0,0,1-.19.26.32.32,0,0,1-.32-.09,1,1,0,0,1-.2-.45,7.74,7.74,0,0,0-.28-1,4.87,4.87,0,0,0-3-3.13,3.44,3.44,0,0,0-2.15,0,3,3,0,0,0-2.13,2.27,4.78,4.78,0,0,0,.07,2.65,3.86,3.86,0,0,0,1.52,2,19.76,19.76,0,0,0,2.41,1.38,21.2,21.2,0,0,1,2.7,1.55,12,12,0,0,1,1.24,1,5.47,5.47,0,0,1,.69,7.31A6.81,6.81,0,0,1,50.58,150Z"/><path class="cls-3" d="M73.35,77.6c.47-1.15.89-2.3,1.29-3.45.76-2.15,1.57-4.28,2.28-6.45a5.27,5.27,0,0,0,.26-1.11c.06-.57-.05-.73-.6-.81a4.42,4.42,0,0,0-1.08-.12.56.56,0,0,1-.34,0,.31.31,0,0,1-.18-.32.25.25,0,0,1,.22-.24,2.58,2.58,0,0,1,.39,0l3.28,0a8,8,0,0,1,1.09.08,2.72,2.72,0,0,1,.38.11.19.19,0,0,1,.13.23.19.19,0,0,1-.16.17l-.39.06a6,6,0,0,0-.74.09,1.39,1.39,0,0,0-1.05.88c-.33.78-.61,1.57-.89,2.37-1,3-2,6-3.17,9a4.26,4.26,0,0,0-.29,1.5c-.08,2.86,0,5.73,0,8.59a4.48,4.48,0,0,0,0,.64c.06.48.15.59.64.68s.85.13,1.27.19a.84.84,0,0,1,.38.11.22.22,0,0,1,.11.25.21.21,0,0,1-.17.17,2,2,0,0,1-.64,0c-1.87,0-3.74-.13-5.61,0l-.74,0c-.19,0-.38,0-.4-.28s.12-.33.32-.37a5.4,5.4,0,0,1,.69-.08,4.19,4.19,0,0,0,.78-.11c.48-.11.61-.25.67-.73a10.34,10.34,0,0,0,.09-1.24V80.09a1.44,1.44,0,0,0-.09-.58c-1.57-4.32-3.09-8.65-4.75-12.94a1.15,1.15,0,0,0-1.16-.86l-.7,0a.9.9,0,0,1-.42-.13.28.28,0,0,1-.11-.31.21.21,0,0,1,.2-.18,3.38,3.38,0,0,1,.55,0c2,.09,3.94.09,5.91,0a4,4,0,0,0,.49,0,1.33,1.33,0,0,1,.4,0,.32.32,0,0,1,.3.28c0,.19-.11.27-.26.31a2.12,2.12,0,0,1-.44.06l-.79.06a1.8,1.8,0,0,0-.39.08.71.71,0,0,0-.57,1,8.19,8.19,0,0,0,.23.81c.76,2.38,1.7,4.69,2.57,7,.32.84.63,1.67,1,2.5A1.08,1.08,0,0,0,73.35,77.6Z"/><path class="cls-1" d="M79.76,128.48c.12,1.83.24,3.61.46,5.38a.38.38,0,0,1-.21.46c-.22.09-.38,0-.49-.22a2.67,2.67,0,0,1-.24-1.11,6.4,6.4,0,0,0-.23-1.22,3.22,3.22,0,0,0-2.78-2.48,15.64,15.64,0,0,0-2.82-.08c-.22,0-.29.1-.27.31a2.8,2.8,0,0,1,0,.29v17.54a7,7,0,0,0,0,.8,1,1,0,0,0,1,1,4,4,0,0,0,.49,0c.27,0,.53,0,.8.05s.36,0,.35.26-.23.22-.39.22a7.09,7.09,0,0,1-.79,0c-1.7-.08-3.41-.05-5.11,0-.42,0-.83,0-1.25,0a4,4,0,0,1-.49,0c-.13,0-.29,0-.28-.2s.14-.18.25-.2a4.24,4.24,0,0,1,.94-.11,2.59,2.59,0,0,0,.78-.08.73.73,0,0,0,.65-.76,8,8,0,0,0,0-.85V129.73c0-.5,0-.5-.51-.49-.82,0-1.63,0-2.43.13a2.89,2.89,0,0,0-2.36,1.53,5.91,5.91,0,0,0-.67,2.31,3.73,3.73,0,0,1-.14.68c-.05.17-.14.31-.35.29a.35.35,0,0,1-.3-.35,4.68,4.68,0,0,1,0-1l.3-3.86a.76.76,0,0,1,0-.15c0-.34,0-.35.38-.35.73,0,1.46,0,2.19,0,4.3.11,8.61.13,12.91,0Z"/><path class="cls-5" d="M1.11,33.55a46.68,46.68,0,0,0,5.37,4.51,49.28,49.28,0,0,0,6,3.61L0,47.61Z"/><path class="cls-6" d="M30.45,47.16,21,57c-.49-1.5-.86-3-1.29-4.41s-.82-2.89-1.24-4.34-.83-2.92-1.28-4.48c1.5.51,2.91,1,4.36,1.44s2.9.78,4.37,1.11S28.85,46.89,30.45,47.16Z"/><path class="cls-7" d="M38.09,48a118.89,118.89,0,0,0,13.48,0L45,59.57C44.69,59.33,38.41,48.71,38.09,48Z"/><path class="cls-8" d="M73.74,45.23,68.79,57.67,60.48,47.16c2.25-.3,4.44-.58,6.62-.9S71.46,45.58,73.74,45.23Z"/><path class="cls-1" d="M18.85,30.5a81.85,81.85,0,0,1-8.38-.34c-2.55-.24-5.09-.62-7.61-1.1A2.09,2.09,0,0,1,2.52,29a.51.51,0,0,1-.4-.63.52.52,0,0,1,.63-.42l1.56.29c2.18.39,4.38.67,6.59.88a80.33,80.33,0,0,0,9.93.27c2.12-.06,4.23-.23,6.34-.46a80.24,80.24,0,0,0,10-1.73,80.14,80.14,0,0,0,27.19-12c.14-.09.27-.19.42-.27a.54.54,0,0,1,.6.88,2.35,2.35,0,0,1-.32.23,81.84,81.84,0,0,1-23.18,11,83.83,83.83,0,0,1-10.38,2.37,83.69,83.69,0,0,1-8.93.94C21.09,30.47,19.65,30.48,18.85,30.5Z"/><path class="cls-9" d="M48.55,26a2.58,2.58,0,0,1-.12,1.07c-.52,3.13-1.06,6.26-1.6,9.39a.05.05,0,0,1,0,0c-.33-.11-7.82-6.26-8.76-7.18.06-.17.22-.13.33-.15a88.29,88.29,0,0,0,9.8-3.07c.12,0,.23-.13.37-.09Z"/><path class="cls-10" d="M29.74,40.26l-6.68-8.8A90.13,90.13,0,0,0,34,30.1Z"/><path class="cls-8" d="M63.21,18.57C63.12,22.3,63,25.9,63,29.51c-.35-.09-8.87-5.25-9.38-5.68A85.6,85.6,0,0,0,63.21,18.57Z"/><path class="cls-4" d="M53.11,14.46a83,83,0,0,1-8.62-.57,72.08,72.08,0,0,1-16.13-3.78,55.29,55.29,0,0,1-13.85-7.3c-.81-.59-1.59-1.2-2.34-1.84a3,3,0,0,1-.26-.23.42.42,0,0,1,0-.59.43.43,0,0,1,.58-.07,1.4,1.4,0,0,1,.2.16A52.42,52.42,0,0,0,29.52,9.59,70.56,70.56,0,0,0,41.14,12.5a78.55,78.55,0,0,0,14.2,1.05c1.62,0,3.24-.09,4.86-.25l.3,0a.45.45,0,0,1,.47.41.43.43,0,0,1-.41.47c-.35.05-.7.07-1,.09C57.38,14.38,55.25,14.49,53.11,14.46Z"/><path class="cls-11" d="M6.26,30.73a86.45,86.45,0,0,0,10.94.85c0,.18-.11.27-.18.38l-3.68,5.35c-.28.41-.23.41-.64.18a40.3,40.3,0,0,1-4.38-2.82A1,1,0,0,1,8,34.32C7.43,33.16,6.87,32,6.26,30.73Z"/><path class="cls-4" d="M2.54,99.37a.94.94,0,0,0-.08.52c0,2.15-.24,4.3-.34,6.45,0,.43,0,.42-.46.43-.66,0-.67,0-.62-.65.15-2.24.31-4.49.47-6.73,0-.38,0-.76.06-1.14s0-.39.4-.38.8-.14,1.07,0,.28.64.4,1c.71,2,1.48,4,2,6.12.17,0,.15-.17.18-.28.64-2.25,1.53-4.43,2.32-6.64a.32.32,0,0,1,.36-.24c.26,0,.53,0,.79,0,.45,0,.41-.07.45.44.09,1.17.15,2.34.22,3.51.1,1.52.19,3,.29,4.56,0,.39,0,.4-.35.4-.94,0-.77.13-.82-.78-.11-2.23-.28-4.45-.31-6.69-.18,0-.16.16-.19.26-.72,2.32-1.61,4.58-2.42,6.87a.35.35,0,0,1-.43.28H5.3c-.25,0-.34-.07-.42-.3-.47-1.43-1-2.84-1.45-4.27-.27-.83-.51-1.68-.76-2.51C2.64,99.54,2.66,99.42,2.54,99.37Z"/><path class="cls-4" d="M19.18,114c-.52,2.38-1.22,4.66-1.83,7-.1.36-.1.36-.5.37-.81,0-.81,0-1-.8q-1-3.8-1.93-7.59c0-.16-.07-.32-.12-.51.34,0,.65,0,1,0s.27.09.31.28c.5,2.14,1,4.27,1.48,6.43,0,.21.08.42.13.63.14,0,.13-.13.15-.21.49-2.3,1.17-4.55,1.74-6.82.06-.24.16-.33.4-.31s.62-.07.83,0,.18.51.25.78c.51,2.14,1.08,4.26,1.47,6.43l.06.08a2.33,2.33,0,0,0,.22-.81c.47-2.09,1.06-4.16,1.59-6.24.06-.23.15-.3.37-.29s.56,0,.89,0c-.15.54-.3,1.05-.44,1.56l-2,7c-.1.37-.11.37-.49.38-.82,0-.83,0-1-.75-.45-1.94-1-3.85-1.37-5.79A2.32,2.32,0,0,0,19.18,114Z"/><path class="cls-11" d="M11.87,11.32l.57-9a51.59,51.59,0,0,0,7.53,5Z"/><path class="cls-5" d="M23.25,8.94a66,66,0,0,0,8.39,3.18c-2.31,1.92-4.59,3.76-6.93,5.69C24.22,14.84,23.75,12,23.25,8.94Z"/><path class="cls-6" d="M35.73,13.23a82.61,82.61,0,0,0,8.69,1.54c-.13.34-5.22,6.45-5.66,6.77Z"/><path class="cls-7" d="M48.93,15.18a76.92,76.92,0,0,0,8.72.06c.11.14,0,.22,0,.29-.65,1.12-1.3,2.23-2,3.34a.71.71,0,0,1-.32.36l-3,1.49c-.16.07-.26.07-.36-.1l-3-5.27S48.94,15.25,48.93,15.18Z"/><path class="cls-4" d="M3.9,116.53,6,119a1.41,1.41,0,0,0,.36-.59,6.84,6.84,0,0,0,.47-1.66c0-.22.1-.33.34-.3a4,4,0,0,1,.76,0,7,7,0,0,1-1.09,3c-.13.18-.14.28,0,.44.34.34.66.7,1,1,.07.08.2.13.17.32H6.93c-.15,0-.23-.1-.33-.19L6,120.42a3.91,3.91,0,0,1-2,1,3.62,3.62,0,0,1-1.57-.09,2.51,2.51,0,0,1-1.3-3.9,4.3,4.3,0,0,1,1.24-1.08c-.12-.2-.25-.39-.36-.59a2.45,2.45,0,0,1-.25-2,2.26,2.26,0,0,1,3.31-1.15,1.93,1.93,0,0,1,.5,2.64,2.67,2.67,0,0,1-.72.74C4.54,116.14,4.24,116.32,3.9,116.53Zm-1,.44a2.27,2.27,0,0,0-.91.88,1.77,1.77,0,0,0,1.11,2.63,2.34,2.34,0,0,0,2.12-.57c.12-.1.16-.18,0-.32Zm-.2-2.49a2.31,2.31,0,0,0,.56,1.28c0,.07.12.14.2.09.58-.34,1.17-.67,1.35-1.38A1.09,1.09,0,0,0,3.89,113C3.19,113,2.7,113.5,2.69,114.48Z"/><path class="cls-1" d="M45.61,97.86v1.42c0,.66,0,1.32,0,2,0,.23,0,.33.3.33,1.23,0,2.45,0,3.68,0,.26,0,.33-.09.33-.34,0-1,0-2.06,0-3.08v-.23s.07-.06.1-.06h1a2.62,2.62,0,0,1,.05,1c0,2.44,0,4.89,0,7.34v.35c0,.18-.08.21-.24.22-.9.07-.9.07-.9-.85V103c0-.38,0-.39-.38-.39H46c-.35,0-.35,0-.36.36v3.37c0,.43,0,.43-.43.44-.72,0-.72,0-.72-.74V98.39c0-.12,0-.23,0-.35s0-.18.18-.18C45,97.87,45.26,97.86,45.61,97.86Z"/><path class="cls-4" d="M79.19,115.75c0-.14,0-.18.06-.23,0-.2-.09-.49.1-.6s.52,0,.78,0,.15.1.15.21,0,.49,0,.74c0,1.49,0,3,0,4.47a8.64,8.64,0,0,1-.1,1.24,2.58,2.58,0,0,1-2.22,2.39,4.52,4.52,0,0,1-2.67-.22c-.41-.16-.41-.17-.28-.57l.16-.46c.16,0,.26.07.37.12a3.64,3.64,0,0,0,1.84.3A1.73,1.73,0,0,0,79,121.75a5.54,5.54,0,0,0,.1-1.4.17.17,0,0,0-.2.1,2.56,2.56,0,0,1-3.91-.22,3.81,3.81,0,0,1,.23-4.6,2.67,2.67,0,0,1,2.81-.77A2.38,2.38,0,0,1,79.19,115.75ZM79.07,118h0v-.65a1.67,1.67,0,0,0-1.14-1.58,1.74,1.74,0,0,0-1.91.57,3.07,3.07,0,0,0-.1,3.31,1.76,1.76,0,0,0,1.88.69,1.74,1.74,0,0,0,1.26-1.55C79.09,118.5,79.07,118.23,79.07,118Z"/><path class="cls-12" d="M45.4,115.8a2.61,2.61,0,0,1,4.45.44,4.08,4.08,0,0,1-.05,3.65,2.71,2.71,0,0,1-3.17,1.44,2.15,2.15,0,0,1-1.09-.65l-.34-.4c0,.29,0,.51-.05.73s-.07.29-.27.27h-.05c-.7,0-.68,0-.67-.65,0-2.68,0-5.37,0-8,0-.69,0-.69.67-.69.52,0,.5-.07.5.52v2.83A1.28,1.28,0,0,0,45.4,115.8Zm3.65,2.27a2.91,2.91,0,0,0-.3-1.39,1.71,1.71,0,0,0-1-.93,1.81,1.81,0,0,0-2.34,1.56,9.86,9.86,0,0,0,0,1.44,1.79,1.79,0,0,0,3.41.72A3.07,3.07,0,0,0,49.05,118.07Z"/><path class="cls-13" d="M76.1,101.32c.19-.2.29-.33.41-.44a2.28,2.28,0,0,1,2.25-.55A2.07,2.07,0,0,1,80.27,102a3.31,3.31,0,0,1,.1.83v3.53c0,.39,0,.39-.37.4-.8,0-.8,0-.8-.77v-2.78a3,3,0,0,0-.11-1,1.39,1.39,0,0,0-2-.87,1.62,1.62,0,0,0-.94,1.52c0,1.1,0,2.21,0,3.32,0,.12,0,.23,0,.35s-.06.21-.21.21h-.74c-.14,0-.22-.06-.22-.2v-9c0-.15.08-.21.22-.2h0c.9-.06.9-.06.9.85Z"/><path class="cls-14" d="M15,103.79H13.15c-.32,0-.32,0-.29.34A2,2,0,0,0,14.92,106a4.83,4.83,0,0,0,1.51-.2c.34-.09.34-.1.43.22.14.52.14.54-.38.67a5.17,5.17,0,0,1-2.41.15,2.76,2.76,0,0,1-2.2-2,4,4,0,0,1,.21-2.95,2.85,2.85,0,0,1,3.43-1.56A2.3,2.3,0,0,1,17,101.68a3.75,3.75,0,0,1,.32,1.69c0,.41,0,.41-.41.42Zm1.16-.87c0-1.06-.52-1.88-1.64-1.85a1.78,1.78,0,0,0-1.66,1.85Z"/><path class="cls-14" d="M29.67,118.3c-.65,0-1.29,0-1.94,0-.2,0-.29,0-.27.28A1.94,1.94,0,0,0,29,120.44a4.24,4.24,0,0,0,2.06-.15c.3-.08.3-.09.39.22l.06.24c.08.19,0,.3-.19.37a6,6,0,0,1-1.26.27,4,4,0,0,1-1.62-.1,2.76,2.76,0,0,1-2-2.06,4,4,0,0,1,.26-2.85,2.84,2.84,0,0,1,3.4-1.53A2.23,2.23,0,0,1,31.55,116,3.76,3.76,0,0,1,32,118c0,.26-.09.35-.35.35C31,118.29,30.31,118.3,29.67,118.3Zm-2.23-.87h3.38a2,2,0,0,0-.11-.74,1.47,1.47,0,0,0-1.9-1C27.93,115.88,27.63,116.56,27.44,117.43Z"/><path class="cls-14" d="M56.17,103.79c-.62,0-1.25,0-1.88,0-.24,0-.31.07-.29.32A2,2,0,0,0,56,106a4.85,4.85,0,0,0,1.56-.2c.32-.09.32-.1.41.24a2.17,2.17,0,0,0,.07.24c.07.18,0,.27-.19.33a4.94,4.94,0,0,1-2.92.16,2.67,2.67,0,0,1-1.92-1.83,4,4,0,0,1,.19-3.05,2.84,2.84,0,0,1,3.39-1.55,2.36,2.36,0,0,1,1.62,1.55,3.91,3.91,0,0,1,.24,1.55c0,.35,0,.35-.38.36Zm1.19-.87c0-1-.46-1.86-1.62-1.85A1.81,1.81,0,0,0,54,102.92Z"/><path class="cls-14" d="M56.09,118.3c-.64,0-1.29,0-1.93,0-.23,0-.27.08-.26.29A2,2,0,0,0,56,120.51a4.84,4.84,0,0,0,1.51-.21c.35-.09.34-.09.43.22.14.52.14.54-.38.68a5.27,5.27,0,0,1-2.4.14,2.75,2.75,0,0,1-2.22-2,4,4,0,0,1,.29-3,2.84,2.84,0,0,1,3.46-1.4A2.19,2.19,0,0,1,58,116.05a3.79,3.79,0,0,1,.39,1.78c0,.47,0,.47-.46.47Zm-2.16-.87h3.31c0-1.14-.56-1.81-1.5-1.85A1.81,1.81,0,0,0,53.93,117.43Z"/><path class="cls-12" d="M63.63,106a2.52,2.52,0,0,1-2,.91,1.82,1.82,0,0,1-1.75-1.15,2,2,0,0,1,.47-2.16,3.29,3.29,0,0,1,1.63-.77,6,6,0,0,1,1.33-.12c.23,0,.28-.11.27-.31a1.24,1.24,0,0,0-1.19-1.28,3.06,3.06,0,0,0-1.55.25.93.93,0,0,1-.36.14c-.38-.86-.37-.73.43-1.05a4,4,0,0,1,1.91-.2A2,2,0,0,1,64.64,102a6,6,0,0,1,.09.84c0,1.23,0,2.45,0,3.68,0,.16,0,.23-.2.24C63.82,106.84,63.82,106.85,63.63,106Zm-.05-1.71c0-.8,0-.8-.76-.76a3.61,3.61,0,0,0-.87.16,1.61,1.61,0,0,0-.73.41,1.16,1.16,0,0,0,.42,1.9,1.61,1.61,0,0,0,1.86-1A2.49,2.49,0,0,0,63.58,104.29Z"/><path class="cls-12" d="M31.51,101.51c0-.07-.05-.14-.08-.22-.2-.54-.19-.54.36-.76a4,4,0,0,1,2.09-.26A2,2,0,0,1,35.72,102a4.6,4.6,0,0,1,.08.84c0,1.22,0,2.45.06,3.67,0,.17,0,.23-.21.24-.75.06-.75.07-.95-.76a2.62,2.62,0,0,1-1.43.85,2.38,2.38,0,0,1-1.27-.07,1.92,1.92,0,0,1-.67-3.12,2.94,2.94,0,0,1,1.28-.73,6.24,6.24,0,0,1,1.67-.24c.37,0,.38,0,.34-.4a1.2,1.2,0,0,0-1.18-1.18,3.06,3.06,0,0,0-1.55.25C31.77,101.42,31.67,101.52,31.51,101.51Zm3.14,2.79v-.59c0-.15-.06-.2-.21-.2a4.38,4.38,0,0,0-1.56.23,1.49,1.49,0,0,0-.65.43,1.17,1.17,0,0,0,.44,1.82,1.62,1.62,0,0,0,1.93-1A2.39,2.39,0,0,0,34.65,104.3Z"/><path class="cls-13" d="M20.14,101.39l.15-.19a2.39,2.39,0,0,1,2.65-.86,2.28,2.28,0,0,1,1.55,2.15c0,.34,0,.69,0,1v2.88c0,.35,0,.35-.36.36-.81,0-.81,0-.81-.81v-2.78a3,3,0,0,0-.12-1,1.36,1.36,0,0,0-1.93-.88A1.65,1.65,0,0,0,20.24,103c0,1.1,0,2.19,0,3.28v.35a.16.16,0,0,1-.18.18H20c-.88.06-.88.06-.88-.83,0-1.73,0-3.47,0-5.21,0-.35,0-.37.33-.36.79,0,.64-.15.73.67C20.11,101.12,20.12,101.2,20.14,101.39Z"/><path class="cls-13" d="M67,115.78c.14,0,.2-.2.3-.3a2.34,2.34,0,0,1,1.48-.72,2.19,2.19,0,0,1,2.5,2,5.16,5.16,0,0,1,.06.79c0,1.11,0,2.22,0,3.32,0,.4,0,.4-.41.41-.76,0-.76,0-.76-.76,0-1,0-1.92,0-2.88a3.31,3.31,0,0,0-.1-.83,1.41,1.41,0,0,0-2.15-.9,1.68,1.68,0,0,0-.86,1.52v3.23c0,.12,0,.24,0,.35s0,.26-.25.28c-.92.08-.91.08-.92-.84,0-1.76,0-3.51,0-5.27,0-.25.07-.3.3-.31.71,0,.71,0,.76.69C67,115.64,66.94,115.73,67,115.78Z"/><path class="cls-13" d="M28,98.53c0,.56,0,1.06,0,1.55,0,.21.06.3.28.29.44,0,.89,0,1.34,0a2.66,2.66,0,0,1,0,.89c-.46,0-.91,0-1.35,0-.21,0-.29.07-.29.28,0,1.11,0,2.22,0,3.33a1.83,1.83,0,0,0,.05.4.75.75,0,0,0,.79.67h.67c.07,0,0,.15,0,.25.05.63.05.64-.6.71a3.9,3.9,0,0,1-.59,0A1.48,1.48,0,0,1,27,105.66a3.63,3.63,0,0,1-.1-.93c0-1,0-2.06,0-3.08,0-.39,0-.39-.36-.39h-.05c-.18,0-.42.08-.52-.06s0-.44-.05-.67.05-.15.15-.16h.14c.22,0,.48.08.63-.05s0-.44.06-.67-.1-.57.06-.77.48-.17.73-.24Z"/><path class="cls-13" d="M71.67,98.54c0,.54,0,1,0,1.53,0,.24.08.31.32.3.43,0,.86,0,1.3,0a4.27,4.27,0,0,1,0,.89c-.47,0-.92,0-1.36,0-.25,0-.31.09-.3.32v3.23a2.28,2.28,0,0,0,0,.44.76.76,0,0,0,.83.69h.65l0,.33c.06.59.08.49-.49.61a3.16,3.16,0,0,1-.69,0,1.47,1.47,0,0,1-1.44-1.27,3.79,3.79,0,0,1-.09-.89v-3.13c0-.35,0-.35-.35-.35a1.34,1.34,0,0,0-.2,0c-.51,0-.44,0-.44-.47s0-.43.43-.42c.1,0,.2,0,.3,0s.27-.05.26-.25,0-.67,0-1,.08-.32.3-.36Z"/><path class="cls-13" d="M36.1,116.6v4.27c0,.41,0,.41-.4.41-.77,0-.77,0-.77-.74v-8c0-.11,0-.23,0-.34s0-.28.25-.27.43,0,.64,0,.29.08.28.29c0,.65,0,1.29,0,1.94Z"/><path class="cls-13" d="M40.71,116.6v4.31c0,.36,0,.37-.35.37-1,0-.81.14-.81-.79q0-4,0-8c0-.11,0-.23,0-.34s.06-.28.26-.27.43,0,.64,0,.28.09.27.29v4.42Z"/><path class="cls-13" d="M66.84,102.09c0-1.42,0-2.84,0-4.27,0-.44,0-.44.41-.44.76,0,.76,0,.76.75v8c0,.1,0,.2,0,.3,0,.25-.1.3-.32.31-.85,0-.85,0-.85-.82Z"/><path class="cls-13" d="M39.12,102v4.32c0,.4,0,.41-.4.41-.92,0-.76.12-.77-.74V98c0-.12,0-.23,0-.35s.06-.28.26-.26.23,0,.34,0c.63,0,.57-.09.57.54Z"/><path class="cls-13" d="M61.31,118v-2.78c0-.37,0-.37.39-.38.78,0,.78,0,.78.78v5.21c0,.41,0,.42-.41.41-.91,0-.75.12-.76-.75S61.31,118.87,61.31,118Z"/><path class="cls-4" d="M61.92,112.37a.72.72,0,1,1,0,1.43.68.68,0,0,1-.7-.73A.7.7,0,0,1,61.92,112.37Z"/><path class="cls-9" d="M48.55,26c.05-.05,0,0,0,0s0,0,0,0Z"/></g></g></svg>