<svg xmlns="http://www.w3.org/2000/svg" viewBox="0 0 388.63 724.36"><defs><style>.cls-1{fill:#fff;}.cls-2{fill:#f6932b;}.cls-3{fill:#ffe000;}.cls-4{fill:#53b748;}.cls-5{fill:#2e65af;}.cls-6{fill:#21429a;}.cls-7{fill:#6d2d90;}.cls-8{fill:#ec2025;}</style></defs><g id="Layer_2" data-name="Layer 2"><g id="Layer_1-2" data-name="Layer 1"><path class="cls-1" d="M25.56,369q6.53-9,13-18.07c6.47-9,13-18,19.15-27.29.58-.86,1.15-1.73,1.64-2.64.82-1.5.45-2.42-1.22-2.84a15.6,15.6,0,0,0-3.81-.38,17.67,17.67,0,0,1-2.62-.19,1.51,1.51,0,0,1-1.45-1.62c0-.8.69-1.21,1.5-1.28.48,0,1-.07,1.44-.08,6.79-.24,13.59-.16,20.39-.12a19.07,19.07,0,0,1,2.39.17,1.54,1.54,0,0,1,1.46,1.61A1.59,1.59,0,0,1,76.19,318a9.88,9.88,0,0,1-2.37.24c-1.68,0-3.35,0-5,.14a5.3,5.3,0,0,0-3.92,2c-.46.55-.89,1.13-1.3,1.72L36,361.38c-1.87,2.66-1.91,2.69-.11,5.29,12.29,17.75,23.51,36.18,34.48,54.76,1.42,2.41,3,4.7,4.46,7.1,1.56,2.64,4.07,3.44,6.87,3.7a13.65,13.65,0,0,1,3.3.56c.72.24,1.31.64,1.22,1.53s-.79,1.3-1.68,1.32H52.85a5.24,5.24,0,0,1-2.36-.23c-.44-.21-.84-.47-.81-1.06a1.08,1.08,0,0,1,.63-1,6.17,6.17,0,0,1,2.28-.65,16.71,16.71,0,0,0,4.89-1.11c1.86-.77,2.16-1.55,1.22-3.33q-2-3.71-4.1-7.32c-9.28-15.68-19-31.07-28.71-46.5-.12-.19-.27-.36-.43-.57-.74.32-.43,1-.43,1.43q0,24.12,0,48.24a25.58,25.58,0,0,0,.38,5,3.73,3.73,0,0,0,3.29,3.29,22.31,22.31,0,0,0,4.53.39c1.14,0,1.86.4,2,1.59s-.58,1.69-2,1.77c-.4,0-.8,0-1.2,0H5.57c-.64,0-1.28,0-1.92,0a1.41,1.41,0,0,1-1.32-1.2,1.35,1.35,0,0,1,1-1.49,8.09,8.09,0,0,1,2.8-.62,17.12,17.12,0,0,0,2.15-.13c2.85-.45,3.89-1.59,4-4.45.09-3.12.11-6.24.11-9.36q0-47.5,0-95c0-.56,0-1.12,0-1.68a3.14,3.14,0,0,0-2.19-3.1,11.78,11.78,0,0,0-3.76-.68c-.87-.08-1.75-.14-2.61-.28a1.58,1.58,0,0,1-1.45-1.65c0-1,.72-1.36,1.61-1.43a8,8,0,0,1,1.2,0,209,209,0,0,0,26.37,0,7.92,7.92,0,0,1,2.38.11,1.69,1.69,0,0,1,1.32,1.77,1.35,1.35,0,0,1-1.32,1.43A17.27,17.27,0,0,1,32,318c-.8.06-1.6,0-2.4.11-3.65.31-4.25.91-4.42,4.53-.08,1.68-.13,3.36-.13,5q0,19.32,0,38.63v2.54Z"/><path class="cls-1" d="M194.42,371c.15.75.58.72,1,.81a33.13,33.13,0,0,1,8.31,3,22.79,22.79,0,0,1,11.12,12.37,76.34,76.34,0,0,1,3.83,16c1,6.25,1.3,12.57,1.89,18.85a23.44,23.44,0,0,0,2.16,8.55c.9,1.78,2.17,3.17,4.36,3.3,1.81.1,2.15-.35,1.75-2.19a8,8,0,0,1-.16-3.79,2.39,2.39,0,0,1,2.28-2.09,2.69,2.69,0,0,1,2.91,1.65,7,7,0,0,1-4.5,9.59,14.48,14.48,0,0,1-12.73-2.4,18.47,18.47,0,0,1-4.53-4.92,33.44,33.44,0,0,1-5.39-15.21c-.69-7.57-1.3-15.14-2-22.71a33.29,33.29,0,0,0-1.94-8.86,13.73,13.73,0,0,0-9.23-8.7,24.75,24.75,0,0,0-7.77-1.18c-.52.46-.33,1.05-.33,1.59q0,26.26,0,52.55c0,3.4,1.19,4.76,4.61,5.18,1.66.21,3.34.27,5,.33.9,0,1.6.29,1.79,1.23.15.79-.6,1.5-1.68,1.65a7.7,7.7,0,0,1-1,0h-29a3.58,3.58,0,0,1-2.08-.41c-.94-.62-.94-1.5,0-2a6,6,0,0,1,2.33-.49c1.51-.13,3-.24,4.52-.51a2.85,2.85,0,0,0,2.69-2.87c0-1.44.25-2.87.25-4.31q0-49.18,0-98.39a38.57,38.57,0,0,0-.41-5.26c-.31-2.26-.9-2.87-3.09-3.35a25.4,25.4,0,0,0-4.52-.48c-1.87-.06-2.69-.64-2.67-1.72,0-1.24.88-1.66,2.92-1.55a228.39,228.39,0,0,0,24,.38c2.79-.13,5.57-.57,8.38-.45A26.82,26.82,0,0,1,208,316.56a22.44,22.44,0,0,1,12.44,15,34,34,0,0,1-.08,19.19c-3.14,10.38-10.27,16.62-20.76,19.17C197.89,370.33,196.09,370.27,194.42,371Zm-9-25.34c0,7.35,0,14.71,0,22.06,0,1.21.28,1.8,1.6,1.62s2.54-.23,3.81-.38c8.42-.94,13.6-5.27,15.81-13.43,2-7.54,1.89-15.17.69-22.82a24.73,24.73,0,0,0-1.71-6c-3.08-7.12-8.4-9.51-15.6-8.66a4.49,4.49,0,0,0-4.35,4.09,18.68,18.68,0,0,0-.22,3.35C185.44,332.23,185.45,339,185.44,345.66Z"/><path class="cls-1" d="M270.27,371c.14.82.71.68,1.15.79a35.34,35.34,0,0,1,8.28,3.05,22.77,22.77,0,0,1,10.93,12.24,76.38,76.38,0,0,1,3.85,16c1,6.33,1.29,12.73,1.91,19.09a22.56,22.56,0,0,0,2.23,8.52c.9,1.7,2.15,3,4.23,3.12,1.83.12,2.2-.33,1.8-2.14a8.55,8.55,0,0,1-.19-3.8,2.43,2.43,0,0,1,2.26-2.11,2.67,2.67,0,0,1,2.93,1.6,7,7,0,0,1-4.44,9.62,14.5,14.5,0,0,1-12.74-2.37,18.12,18.12,0,0,1-4.53-4.91,33.29,33.29,0,0,1-5.42-15.2c-.69-7.57-1.31-15.14-1.95-22.71a36.57,36.57,0,0,0-1.52-7.74c-1.76-5.74-5.69-9.08-11.47-10.37a28.15,28.15,0,0,0-5.92-.69c-.61.53-.36,1.21-.36,1.81q0,26.14,0,52.31c0,3.41,1.19,4.79,4.57,5.22,1.66.21,3.34.26,5,.33,1,0,1.84.3,1.8,1.43s-.86,1.44-1.85,1.46l-1.2,0H241.55a5,5,0,0,1-2.35-.28c-.53-.26-1-.58-.94-1.25s.44-.79.9-1a6.37,6.37,0,0,1,2.11-.4c1.43-.13,2.87-.22,4.29-.47,2.13-.38,2.71-1,3-3.12a36.53,36.53,0,0,0,.26-4.31q0-49.06,0-98.15a40.36,40.36,0,0,0-.4-5.26c-.32-2.36-.89-2.91-3.29-3.42a19.76,19.76,0,0,0-4.05-.43,4.68,4.68,0,0,1-1.88-.28,1.43,1.43,0,0,1-1-1.66,1.47,1.47,0,0,1,1.41-1.38,9.79,9.79,0,0,1,1.43,0c7.51.41,15,.7,22.54.45,3.44-.12,6.84-.72,10.3-.51,9.95.62,17.32,5.06,21.42,14.37a24.71,24.71,0,0,1,1.86,6.92c.7,5.62.63,11.22-1.32,16.58-3.87,10.61-11.72,16.4-22.67,18.27A8.82,8.82,0,0,0,270.27,371Zm-9-25.35v13.67c0,2.88,0,5.75,0,8.63,0,1,.33,1.46,1.37,1.34,1.35-.15,2.71-.22,4.06-.37,8.4-.94,13.53-5.29,15.8-13.46,1.78-6.41,1.73-12.95,1.15-19.5a29.74,29.74,0,0,0-2.2-9.29c-3.12-7.19-8.49-9.47-15.62-8.62a4.48,4.48,0,0,0-4.32,4.11,18.63,18.63,0,0,0-.22,3.34C261.28,332.26,261.29,339,261.28,345.69Z"/><path class="cls-1" d="M150.88,313.5c.34,5.5.63,10.67,1,15.84.28,4.47.62,8.94.89,13.41.06,1.07.4,2.34-.91,2.95-.73.34-1.49-.65-1.9-2.61-.78-3.67-1.24-7.41-2.32-11a37.85,37.85,0,0,0-2.75-6.88,10.87,10.87,0,0,0-8.09-5.72,80.2,80.2,0,0,0-14.09-1.14c-3.44-.06-6.88,0-10.32,0-2.06,0-2.08,0-2.08,2.1q0,17.28,0,34.55v14.26a40.27,40.27,0,0,0,7.19.09,45.67,45.67,0,0,0,9.72-1.26,6.87,6.87,0,0,0,5.12-4.85,57.2,57.2,0,0,0,2.33-13.42,14.5,14.5,0,0,1,.6-3.53,1,1,0,0,1,1-.82c.43,0,.66.39.86.75a4.11,4.11,0,0,1,.37,2.1c0,2.16,0,4.32-.1,6.48-.6,12.63-.51,25.27,0,37.9.05,1.12.06,2.24.05,3.36,0,.84-.18,1.7-1.16,1.83s-1.31-.75-1.42-1.55q-.43-3.33-.78-6.67a46.13,46.13,0,0,0-1.39-8.74,14.54,14.54,0,0,0-1.65-3.71,7.36,7.36,0,0,0-5.36-3.63,113,113,0,0,0-14.37-.52c-.8,0-1.15.37-1.09,1.17,0,.48,0,1,0,1.44q0,26.64,0,53.27c0,2.64-.47,2.63,2.55,2.59,8.16-.11,16.32,0,24.46-.69a35.88,35.88,0,0,0,4.51-.58,9.53,9.53,0,0,0,6.42-5A28,28,0,0,0,151.42,415c.39-2.76.62-5.56.9-8.34a6.15,6.15,0,0,1,.64-2.53,1,1,0,0,1,.93-.63,1,1,0,0,1,.85.73,9.73,9.73,0,0,1,.41,3.79c-.38,6.95-.41,13.91-.47,20.87,0,1.84,0,3.68,0,5.52s0,1.87-1.79,1.81c-11.75-.35-23.51-.62-35.27-.6q-13.32,0-26.63,0a5.2,5.2,0,0,1-2.59-.29,1.21,1.21,0,0,1-.74-1.36,1.05,1.05,0,0,1,1.07-.79c1.43-.13,2.86-.3,4.29-.44,3.47-.34,4.43-1.3,4.62-4.83.11-2,.13-4,.13-6q0-48.24,0-96.47a46.25,46.25,0,0,0-.2-5.27c-.23-2-.73-2.34-2.7-2.78a22.14,22.14,0,0,0-4.3-.33A7.07,7.07,0,0,1,88.9,317a1.24,1.24,0,0,1-1-1.22,1.26,1.26,0,0,1,.89-1.27,6.67,6.67,0,0,1,2.84-.26h48.47C143.65,314.19,147.17,314.34,150.88,313.5Z"/><path class="cls-1" d="M215.4,225.93q-21,.25-41.94-1.54c-29.79-2.56-59-8-87-18.63-28.37-10.71-53.79-26.13-75.57-47.35-2.87-2.79-5.57-5.73-8.34-8.62a7.71,7.71,0,0,1-1.09-1.27A3.22,3.22,0,0,1,2,144.38a3.28,3.28,0,0,1,4-.12,8.3,8.3,0,0,1,1.2,1.17C31.4,172,60.86,190.49,94.64,202.32a283.19,283.19,0,0,0,48.45,12.13,391.17,391.17,0,0,0,39.53,4.32,528.17,528.17,0,0,0,58.75,0q17.61-.88,35.15-2.62c11.61-1.14,23.19-2.56,34.75-4.11,17-2.27,34-5,50.9-7.89,6.61-1.12,13.2-2.4,19.79-3.59a9.39,9.39,0,0,1,1.67-.19,3.16,3.16,0,0,1,3.28,2.85,3.13,3.13,0,0,1-2.43,3.39c-2.41.55-4.85,1-7.29,1.4-13.93,2.4-27.84,4.89-41.79,7.13-11.91,1.91-23.86,3.55-35.83,5-13.65,1.69-27.32,3.11-41,4.1C244.18,225.35,229.81,226.07,215.4,225.93Z"/><path class="cls-1" d="M177.46,619.87c.28,3.66.52,7.07.81,10.49.4,4.62.83,9.23,1.25,13.85,0,.24.07.48.08.71,0,.91.08,1.89-1.07,2.1s-1.62-.57-2-1.42a15.38,15.38,0,0,1-.67-2.29,45.29,45.29,0,0,0-3.37-10.21c-2.18-4.43-5.41-7.37-10.51-8.11a103.72,103.72,0,0,0-12.42-1.07c-6.15-.15-12.31-.09-18.47-.1a8.72,8.72,0,0,0-1,.11V667c4.07-.06,8.05.09,12-.25a66.65,66.65,0,0,0,8.31-1,7.49,7.49,0,0,0,5.8-5.11,47.71,47.71,0,0,0,2.3-10.75,6.56,6.56,0,0,1,.48-2.09c.26-.53.61-1,1.26-.93a1.43,1.43,0,0,1,1.3,1.21,9.51,9.51,0,0,1,.2,3.1c-.11,2.88-.22,5.75-.37,8.63a281,281,0,0,0,.35,28.29,9.89,9.89,0,0,1,0,1.44c-.08.85-.38,1.57-1.38,1.67a1.49,1.49,0,0,1-1.67-1.36c-.25-1.09-.41-2.2-.57-3.31-.34-2.21-.6-4.43-1-6.63A13,13,0,0,0,155,674.6a9,9,0,0,0-6.08-3.88,74.83,74.83,0,0,0-9.81-.54c-2.39-.09-4.8,0-7.19,0-1.91,0-1.93,0-1.93,2q0,11,0,22.08,0,11.64,0,23.27c0,2,0,2,2,2,10.55-.09,21.11,0,31.65-.71a27.86,27.86,0,0,0,4.28-.57,11.69,11.69,0,0,0,8-6.37,29.84,29.84,0,0,0,2.94-10.8,34.13,34.13,0,0,1,.58-3.78c.19-.77.63-1.57,1.64-1.44s1.11.83,1.19,1.58a15.41,15.41,0,0,1,.12,2.15c-.23,7.51-.71,15-.55,22.54,0,1.33-.44,1.57-1.64,1.52-24.31-.89-48.62-.61-72.94-.67a8.38,8.38,0,0,1-3.07-.4.8.8,0,0,1-.55-.94,1.14,1.14,0,0,1,.62-.65,10,10,0,0,1,1.66-.19c1.83-.16,3.67-.25,5.49-.48,2.85-.35,3.52-1,3.89-3.91a24.9,24.9,0,0,0,.17-3.35q0-42.22,0-84.46c0-4.78-.61-5.4-5.3-5.66-1.2-.07-2.4,0-3.6-.07a9.81,9.81,0,0,1-1.43-.09c-.55-.11-1.11-.32-1.19-1s.53-.92,1-1.11a6.53,6.53,0,0,1,2.37-.21h14.16q23,0,46.07,0A53.81,53.81,0,0,0,177.46,619.87Z"/><path class="cls-1" d="M37.57,619.94c9.75,0,19.51,0,29.27,0a60.71,60.71,0,0,0,6.46-.4c1.19-.13,1.54.29,1.61,1.38.17,2.56.45,5.1.61,7.65.3,4.47.72,8.93,1.38,13.36a26.81,26.81,0,0,1,.16,3.59A1.36,1.36,0,0,1,75.84,647a1.42,1.42,0,0,1-1.5-1,9.89,9.89,0,0,1-.74-2.52,43,43,0,0,0-2.66-9.42c-2.72-6.37-7.56-9.67-14.35-10.33-7.91-.77-15.82-.48-23.73-.22-1.44,0-2.88.15-4.32.19-.68,0-1,.27-1,1,0,.48,0,1,0,1.44v38.63c0,.4,0,.81,0,1.2-.06.77.18,1.19,1.05,1.18,6.4-.06,12.8,0,19.11-1.29a8.11,8.11,0,0,0,6.35-5.55,32.15,32.15,0,0,0,1.84-8.88,13.14,13.14,0,0,1,.62-3.53,1.38,1.38,0,0,1,1.41-1.09,1.42,1.42,0,0,1,1.31,1.47,17.33,17.33,0,0,1,0,2.39c-.62,9.91-.54,19.83-.39,29.74,0,2.8.31,5.59.42,8.39.09,1.95-.23,2.51-1.32,2.62s-1.61-.45-1.9-2.25c-.41-2.53-.71-5.07-1.1-7.59-.15-1-.41-2-.64-3-1.07-4.59-3.94-7.1-8.63-7.68a100.31,100.31,0,0,0-16.53-.36c-1.14.05-1.64.38-1.63,1.69q.07,21.24,0,42.47c0,2.8,1.44,5.61,5.39,5.68,1.68,0,3.37,0,5,.15.85.07,2.2-.25,2.22,1.16,0,1.21-1.23,1-2,1.18a9.42,9.42,0,0,1-1.68.09q-15.82,0-31.67,0a25.69,25.69,0,0,1-2.62-.21c-.51-.06-1-.29-1.06-.82-.09-.71.49-1,1-1.11a13.81,13.81,0,0,1,3.55-.54,23.76,23.76,0,0,0,4.52-.55,2.64,2.64,0,0,0,2.39-2.58c.14-1.75.27-3.51.27-5.27q0-41.62,0-83.26c0-4.38-.7-5.07-5.15-5.31-1.59-.08-3.19-.17-4.78-.3-.86-.06-1.66-.41-1.65-1.39s.87-1.25,1.7-1.32,1.6-.1,2.39-.1H37.57Z"/><path class="cls-1" d="M244.25,724.36c-5.94,0-11.5-1.65-17-3.77-1.48-.58-2.93-1.26-4.43-1.78-3-1-3.71-.59-4.35,2.4-.13.62-.22,1.26-.37,1.88a1.61,1.61,0,0,1-1.82,1.22,1.37,1.37,0,0,1-1.42-1.58c.09-1.67.27-3.34.48-5a105.74,105.74,0,0,0,.49-21.78c-.06-.8-.08-1.6-.08-2.4,0-1,.31-1.78,1.33-2s1.62.52,1.94,1.38a13.1,13.1,0,0,1,.57,2.32,48,48,0,0,0,3.85,13.29c2.87,5.87,7.15,10.15,13.59,12a26.19,26.19,0,0,0,13.75.21,15.11,15.11,0,0,0,11.06-10A24.6,24.6,0,0,0,262,694.2a21.66,21.66,0,0,0-7.09-9.76,61.91,61.91,0,0,0-11.72-7.4,107.82,107.82,0,0,1-11.08-6.16c-1.66-1.11-3.27-2.3-4.89-3.46-15.5-11.15-12.47-37.46,5.32-45.76a27,27,0,0,1,19.84-1.47c2.37.71,4.69,1.56,7,2.33a20.46,20.46,0,0,0,2.74.81c2.85.53,3.46.12,4.23-2.69a11.53,11.53,0,0,1,.32-1.15,1.49,1.49,0,0,1,1.74-.94,1.25,1.25,0,0,1,1.12,1.34c0,1,0,2.08-.13,3.11a78.72,78.72,0,0,0,.34,18.66,25.62,25.62,0,0,1,.18,2.63,1.14,1.14,0,0,1-.9,1.24,1.45,1.45,0,0,1-1.53-.42,4.62,4.62,0,0,1-1-2.16,44.21,44.21,0,0,0-1.36-5.08c-2.66-7.16-7.2-12.55-14.61-15.13a16.85,16.85,0,0,0-10.39-.19c-5.56,1.62-8.88,5.5-10.3,11a23,23,0,0,0,.34,12.78,18.49,18.49,0,0,0,7.35,9.79,96.87,96.87,0,0,0,11.61,6.67,105.78,105.78,0,0,1,13.07,7.51,57.54,57.54,0,0,1,6,4.79c11.63,10.73,10,26.14,3.31,35.3S255.64,724.19,244.25,724.36Z"/><path class="cls-1" d="M354.22,374.72c2.28-5.56,4.29-11.08,6.23-16.63,3.64-10.4,7.59-20.68,11-31.16a25.75,25.75,0,0,0,1.28-5.35c.27-2.74-.27-3.52-2.91-3.94a22.4,22.4,0,0,0-5.23-.55,2.82,2.82,0,0,1-1.64-.23,1.52,1.52,0,0,1-.85-1.58,1.16,1.16,0,0,1,1-1.13,12,12,0,0,1,1.9-.2l15.83-.15a35.52,35.52,0,0,1,5.26.4,10,10,0,0,1,1.83.51,1,1,0,0,1-.13,1.93c-.63.12-1.27.19-1.9.27a33,33,0,0,0-3.56.44,6.78,6.78,0,0,0-5.08,4.27c-1.55,3.77-2.94,7.59-4.26,11.44-5,14.56-9.82,29.2-15.34,43.59a21.77,21.77,0,0,0-1.41,7.24c-.35,13.84-.09,27.67-.13,41.51a24.89,24.89,0,0,0,.24,3.1c.28,2.3.75,2.86,3.08,3.29,2,.37,4.11.6,6.17.87a4.45,4.45,0,0,1,1.81.56,1.12,1.12,0,0,1,.53,1.23,1,1,0,0,1-.8.8,10.07,10.07,0,0,1-3.1.14c-9-.25-18.06-.61-27.1-.23-1.2,0-2.39.2-3.59.22-.92,0-1.81-.17-1.92-1.34s.6-1.61,1.54-1.78a26.75,26.75,0,0,1,3.33-.39,20.87,20.87,0,0,0,3.79-.55c2.29-.53,2.95-1.17,3.24-3.53a49.78,49.78,0,0,0,.41-6c0-11.67,0-23.35,0-35a8.13,8.13,0,0,0-.47-2.81c-7.57-20.85-14.89-41.8-22.91-62.49-1.09-2.81-2.78-4.09-5.64-4.16-1.12,0-2.24-.14-3.36-.2a3.76,3.76,0,0,1-2-.65,1.33,1.33,0,0,1-.56-1.47,1.08,1.08,0,0,1,1-.89,19.31,19.31,0,0,1,2.63-.13c9.51.42,19,.43,28.54.21a23.77,23.77,0,0,0,2.39-.15,6.44,6.44,0,0,1,1.91,0,1.53,1.53,0,0,1,1.44,1.37c.11.91-.52,1.32-1.23,1.51a11.74,11.74,0,0,1-2.13.29c-1.28.11-2.56.16-3.83.29a8.62,8.62,0,0,0-1.87.38c-2.57.82-3.35,2.1-2.77,4.69.29,1.32.71,2.62,1.12,3.91,3.67,11.49,8.21,22.66,12.43,33.94,1.51,4,3,8.07,4.59,12.09A4.67,4.67,0,0,0,354.22,374.72Z"/><path class="cls-1" d="M385.17,620.46c.58,8.8,1.15,17.41,2.23,26,.12.95,0,1.81-1,2.19a1.8,1.8,0,0,1-2.37-1.06,12.66,12.66,0,0,1-1.17-5.34,30.65,30.65,0,0,0-1.1-5.88c-1.94-6.84-6.35-10.84-13.42-12-4.55-.74-9.09-.5-13.64-.39-1.06,0-1.42.49-1.32,1.48a13.81,13.81,0,0,1,0,1.44v84.7a32.53,32.53,0,0,0,.16,3.83c.37,2.87,1.72,4.23,4.58,4.7a23.57,23.57,0,0,0,2.39.19c1.27.08,2.56.09,3.83.23.75.08,1.77.1,1.69,1.25s-1.11,1.06-1.85,1.08c-1.27,0-2.55-.11-3.83-.17-8.23-.41-16.46-.29-24.7.11-2,.09-4,.11-6,.11a19.08,19.08,0,0,1-2.39-.18c-.65-.06-1.38-.21-1.37-1,0-.62.67-.83,1.22-1a19.1,19.1,0,0,1,4.52-.5,13.18,13.18,0,0,0,3.8-.4c2.17-.64,2.9-1.41,3.12-3.68.13-1.35.13-2.72.13-4.08q0-42.83,0-85.66c0-2.37,0-2.39-2.47-2.32-3.92.11-7.83.19-11.74.6a14,14,0,0,0-11.35,7.39,28.94,28.94,0,0,0-3.28,11.18,15.86,15.86,0,0,1-.66,3.29c-.26.78-.69,1.49-1.69,1.38s-1.32-.87-1.44-1.68a22.56,22.56,0,0,1,0-4.79q.71-9.33,1.42-18.65c0-.24,0-.48.06-.72.18-1.66.18-1.69,1.84-1.69,3.52,0,7,0,10.56,0,20.79.53,41.58.64,62.37,0C383.2,620.43,384.08,620.46,385.17,620.46Z"/><path class="cls-2" d="M5.37,162a220.31,220.31,0,0,0,25.94,21.76,231.6,231.6,0,0,0,28.9,17.46L0,229.92C1.8,207.18,3.56,184.88,5.37,162Z"/><path class="cls-3" d="M147.05,227.75,101.16,275.2C98.81,268,97,260.9,95,253.92s-4-14-6-21-4-14.1-6.19-21.63c7.21,2.46,14,5,21,7s14,3.78,21.11,5.35S139.32,226.43,147.05,227.75Z"/><path class="cls-4" d="M183.94,231.55a569.84,569.84,0,0,0,65.08-.18l-31.93,56.3C215.8,286.5,185.49,235.25,183.94,231.55Z"/><path class="cls-5" d="M356.1,218.4c-8,20.2-15.89,40-23.9,60.11l-40.12-50.76c10.86-1.47,21.41-2.8,31.93-4.33S345.11,220.13,356.1,218.4Z"/><path class="cls-1" d="M91,147.28a384.77,384.77,0,0,1-40.46-1.65c-12.34-1.16-24.59-3-36.76-5.29a12.86,12.86,0,0,1-1.63-.38,2.5,2.5,0,0,1-2-3.07,2.55,2.55,0,0,1,3-2c2.52.41,5,.92,7.54,1.38,10.54,1.92,21.16,3.25,31.83,4.26a391.4,391.4,0,0,0,47.94,1.32c10.23-.3,20.43-1.12,30.61-2.25a391.72,391.72,0,0,0,48.13-8.32c47.29-11.28,91.22-30.22,131.34-57.8a19.65,19.65,0,0,1,2-1.3,2.57,2.57,0,0,1,2.9,4.23A14.19,14.19,0,0,1,314,77.52,394.71,394.71,0,0,1,202.11,130.8,389.52,389.52,0,0,1,152,142.24a405.46,405.46,0,0,1-43.14,4.57C101.87,147.16,94.91,147.18,91,147.28Z"/><path class="cls-6" d="M234.44,125.52c.45,1.78-.26,3.47-.54,5.16q-3.81,22.68-7.75,45.35a.72.72,0,0,1-.09.2c-1.61-.57-37.79-30.27-42.3-34.71.26-.82,1.05-.58,1.6-.72A426.66,426.66,0,0,0,232.65,126c.58-.23,1.13-.64,1.82-.44Z"/><path class="cls-7" d="M143.62,194.44,111.38,151.9a431.58,431.58,0,0,0,52.89-6.53C157.32,161.87,150.56,178,143.62,194.44Z"/><path class="cls-5" d="M305.23,89.65c-.42,18-.83,35.43-1.24,52.85-1.68-.43-42.82-25.34-45.3-27.44A403.58,403.58,0,0,0,305.23,89.65Z"/><path class="cls-1" d="M256.48,69.83a416.77,416.77,0,0,1-41.62-2.73A346.68,346.68,0,0,1,137,48.81c-23.9-8.72-46.37-20.17-66.92-35.24q-5.8-4.26-11.3-8.91a11.11,11.11,0,0,1-1.26-1.11A2,2,0,0,1,57.42.73,2.08,2.08,0,0,1,60.24.39a7.36,7.36,0,0,1,.94.75C85.34,21.54,112.83,36,142.58,46.3a338.29,338.29,0,0,0,56.11,14.07,383,383,0,0,0,68.55,5.08c7.83-.13,15.66-.44,23.47-1.22a9.93,9.93,0,0,1,1.44-.08,2.16,2.16,0,0,1,2.29,2,2.11,2.11,0,0,1-2,2.26c-1.66.22-3.34.34-5,.44C277.11,69.46,266.81,70,256.48,69.83Z"/><path class="cls-8" d="M30.25,148.39a410,410,0,0,0,52.82,4.11,3.05,3.05,0,0,1-.89,1.82q-8.87,12.94-17.75,25.87c-1.36,2-1.1,2-3.12.83a196.57,196.57,0,0,1-21.12-13.59,4.56,4.56,0,0,1-1.65-1.67C35.88,160.14,33.19,154.54,30.25,148.39Z"/><path class="cls-1" d="M12.26,479.86a4.3,4.3,0,0,0-.36,2.52c-.24,10.4-1.16,20.75-1.67,31.13-.1,2.07-.13,2.07-2.22,2.09-3.18,0-3.23,0-3-3.12Q6.11,496.22,7.27,480c.13-1.84.18-3.68.33-5.51s.2-1.87,1.91-1.85,3.85-.65,5.16.26,1.37,3.1,2,4.74c3.43,9.78,7.13,19.48,9.71,29.53.8-.14.7-.81.84-1.31,3.13-10.91,7.43-21.4,11.24-32.07a1.48,1.48,0,0,1,1.72-1.18c1.27.08,2.55,0,3.83,0,2.15,0,2-.34,2.15,2.09.42,5.66.74,11.32,1.09,17q.67,11,1.36,22c.12,1.87.13,1.93-1.69,1.91-4.53-.05-3.7.63-3.92-3.76-.54-10.76-1.36-21.51-1.53-32.3-.86.07-.75.76-.9,1.24C37,492,32.74,502.89,28.83,513.94c-.4,1.14-1,1.51-2.06,1.39a4.38,4.38,0,0,0-1.2,0c-1.16.17-1.63-.37-2-1.47-2.28-6.89-4.72-13.73-7-20.62-1.32-4-2.45-8.09-3.69-12.13C12.75,480.68,12.85,480.12,12.26,479.86Z"/><path class="cls-1" d="M92.63,550.29c-2.54,11.48-5.9,22.47-8.84,33.57-.47,1.78-.5,1.77-2.43,1.8-3.91,0-3.9,0-4.88-3.85q-4.65-18.33-9.31-36.66c-.2-.77-.35-1.54-.56-2.48,1.63,0,3.14.05,4.65,0,1,0,1.31.41,1.53,1.34,2.39,10.35,5,20.65,7.12,31,.21,1,.42,2,.62,3.05.7-.06.65-.61.74-1,2.35-11.09,5.66-21.94,8.42-32.93.28-1.14.78-1.57,1.94-1.47,1.35.12,3-.35,4,.25s.88,2.44,1.2,3.74c2.48,10.32,5.22,20.59,7.12,31a1.44,1.44,0,0,0,.25.43c.8-1.22.79-2.63,1.08-3.92,2.29-10.13,5.13-20.11,7.68-30.17.28-1.09.72-1.42,1.78-1.37,1.35.08,2.7,0,4.3,0-.74,2.65-1.42,5.09-2.12,7.54q-4.77,16.8-9.55,33.62c-.52,1.81-.53,1.8-2.4,1.83-3.94,0-4,.05-4.82-3.62-2.14-9.34-4.65-18.59-6.58-28A11,11,0,0,0,92.63,550.29Z"/><path class="cls-8" d="M57.33,54.67c.92-14.6,1.81-28.83,2.73-43.48a250.9,250.9,0,0,0,36.4,24Z"/><path class="cls-2" d="M112.27,43.18A320.86,320.86,0,0,0,152.8,58.52C141.63,67.79,130.65,76.7,119.34,86,117,71.68,114.67,57.74,112.27,43.18Z"/><path class="cls-3" d="M172.53,63.87a385.77,385.77,0,0,0,42,7.44c-.64,1.66-25.24,31.14-27.35,32.73C182.35,90.81,177.56,77.65,172.53,63.87Z"/><path class="cls-4" d="M236.31,73.31a374.32,374.32,0,0,0,42.09.28c.51.7,0,1-.19,1.42q-4.71,8.07-9.45,16.14a3.78,3.78,0,0,1-1.58,1.73L252.55,100c-.74.37-1.27.37-1.74-.47q-7.19-12.75-14.4-25.46C236.3,73.93,236.35,73.66,236.31,73.31Z"/><path class="cls-1" d="M18.84,562.75l10.31,11.78a6.77,6.77,0,0,0,1.75-2.84,34.1,34.1,0,0,0,2.28-8.05c.18-1,.47-1.59,1.63-1.45a22.2,22.2,0,0,1,3.67.19c-.87,5.24-2.15,10.22-5.27,14.53-.64.89-.68,1.38.1,2.16,1.64,1.64,3.2,3.36,4.76,5.08.34.37,1,.62.82,1.53h-5.4a2.24,2.24,0,0,1-1.6-.95c-1-1-2-2.07-3.07-3.2a18.86,18.86,0,0,1-9.6,4.63,17.27,17.27,0,0,1-7.6-.45,12.08,12.08,0,0,1-6.25-18.83,20.49,20.49,0,0,1,6-5.2c-.62-1-1.24-1.91-1.77-2.88a11.71,11.71,0,0,1-1.19-9.69,10.88,10.88,0,0,1,16-5.56c4.07,2.66,5.16,8.43,2.41,12.77a12.44,12.44,0,0,1-3.5,3.58C21.93,560.85,20.48,561.71,18.84,562.75ZM14,564.84a10.91,10.91,0,0,0-4.41,4.29,8.56,8.56,0,0,0,5.38,12.69,11.27,11.27,0,0,0,10.21-2.74c.57-.49.79-.89.19-1.56C21.54,573.32,17.78,569.1,14,564.84Zm-1-12c-.07,1.89,1.12,4.11,2.68,6.2.25.33.57.67,1,.42,2.77-1.63,5.64-3.23,6.5-6.66s-1.2-6.68-4.38-6.9C15.39,545.64,13.06,548.12,13,552.83Z"/><path class="cls-1" d="M220.27,472.6v6.82c0,3.2,0,6.4,0,9.59,0,1.09.25,1.58,1.47,1.57q8.86-.07,17.74,0c1.26,0,1.63-.43,1.62-1.66-.06-4.95,0-9.9,0-14.86V473c.24-.16.36-.31.48-.31,1.59,0,3.19,0,4.78.05.62,1.52.25,3.12.26,4.68,0,11.83,0,23.65,0,35.48,0,.56,0,1.12,0,1.68,0,.86-.4,1-1.17,1.08-4.37.31-4.37.33-4.37-4.13,0-4.71,0-9.43,0-14.14,0-1.86,0-1.9-1.79-1.9q-8.64,0-17.27,0c-1.67,0-1.71,0-1.71,1.74,0,5.43,0,10.87,0,16.3,0,2.09,0,2.09-2.07,2.11-3.49,0-3.49,0-3.49-3.55V475.13c0-.56,0-1.12,0-1.68s.23-.86.84-.86C217.05,472.61,218.56,472.6,220.27,472.6Z"/><path class="cls-1" d="M382.43,559c.15-.68.21-.9.25-1.12.19-1-.43-2.36.51-2.89s2.49-.17,3.76-.19c.65,0,.74.46.73,1,0,1.2-.09,2.4-.09,3.6,0,7.19,0,14.38,0,21.58a42.36,42.36,0,0,1-.45,6c-.89,6.43-4.35,10.22-10.71,11.57a22,22,0,0,1-12.93-1.05c-2-.78-1.94-.82-1.33-2.76.24-.75.51-1.5.76-2.22.78-.2,1.25.32,1.8.56a17.79,17.79,0,0,0,8.87,1.48,8.37,8.37,0,0,0,7.88-6.56c.64-2.25.42-4.5.47-6.73a.82.82,0,0,0-1,.48c-3.95,5.08-13.86,5.59-18.85-1.06-4.66-6.19-4.24-16.58,1.08-22.21,3.73-4,8.32-5.13,13.56-3.71C379.08,555.32,380.73,556.94,382.43,559Zm-.58,10.69h0c0-1,0-2.07,0-3.11a8.12,8.12,0,0,0-5.49-7.63,8.29,8.29,0,0,0-9.23,2.73c-3.25,4.06-3.48,11.74-.47,16a8.48,8.48,0,0,0,9.08,3.32,8.39,8.39,0,0,0,6.07-7.49C381.92,572.23,381.85,571,381.85,569.67Z"/><path class="cls-1" d="M219.24,559.22a11.76,11.76,0,0,1,9.8-5.08c5.47-.1,9.42,2.35,11.69,7.21a19.58,19.58,0,0,1-.26,17.6,13.11,13.11,0,0,1-15.29,7,10.4,10.4,0,0,1-5.26-3.16c-.48-.52-.92-1.06-1.66-1.92-.09,1.41-.19,2.48-.22,3.54,0,.87-.35,1.37-1.3,1.29h-.24c-3.38.2-3.29.2-3.27-3.14.06-13,.06-25.92.09-38.88,0-3.34,0-3.34,3.23-3.33,2.49,0,2.39-.32,2.39,2.52,0,4.56,0,9.12,0,13.68A6,6,0,0,0,219.24,559.22Zm17.62,11a14.19,14.19,0,0,0-1.44-6.72,8.37,8.37,0,0,0-5-4.49,8.76,8.76,0,0,0-11.31,7.52,50.2,50.2,0,0,0-.12,6.94,8.66,8.66,0,0,0,16.47,3.48A14.5,14.5,0,0,0,236.86,570.18Z"/><path class="cls-1" d="M367.48,489.28c.92-1,1.42-1.59,2-2.11a11,11,0,0,1,10.86-2.68c4.13,1.14,6.29,4.12,7.27,8.11a16.67,16.67,0,0,1,.49,4c0,5.67,0,11.35,0,17,0,1.88,0,1.88-1.77,1.92-3.87.1-3.87.1-3.87-3.68,0-4.48,0-8.95,0-13.43a15.51,15.51,0,0,0-.51-4.74c-1.41-4.49-5.74-6.4-9.91-4.22a7.89,7.89,0,0,0-4.55,7.33c0,5.36,0,10.71,0,16.07,0,.56,0,1.12,0,1.68s-.3,1-1,1h-3.59c-.68,0-1.05-.28-1.05-1,0-.55,0-1.11,0-1.67V472.89c0-.56,0-1.11,0-1.67,0-.71.37-1,1.05-1h.24c4.35-.29,4.35-.29,4.35,4.13Z"/><path class="cls-1" d="M72.63,501.21c-3,0-6.07,0-9.1,0-1.57,0-1.57.06-1.45,1.65.39,5.28,4.23,8.77,10,9a23.56,23.56,0,0,0,7.32-1c1.64-.46,1.64-.47,2,1.07.66,2.5.68,2.57-1.85,3.24a24.88,24.88,0,0,1-11.6.68,13.22,13.22,0,0,1-10.62-9.56,19.32,19.32,0,0,1,1-14.23,13.77,13.77,0,0,1,16.58-7.53A11.06,11.06,0,0,1,82.17,491a18.15,18.15,0,0,1,1.56,8.16c-.06,2-.06,2-2,2C78.7,501.22,75.66,501.21,72.63,501.21ZM78.25,497c0-5.12-2.52-9.09-7.92-9-4.51.1-8.14,4.2-8,9Z"/><path class="cls-1" d="M143.27,571.29c-3.11,0-6.23,0-9.34,0-1,0-1.4.23-1.34,1.35a9.41,9.41,0,0,0,7.56,9,20.6,20.6,0,0,0,9.92-.7c1.49-.41,1.49-.42,1.88,1.05.11.38.19.77.33,1.15.35.95,0,1.45-.94,1.78a28.12,28.12,0,0,1-6.07,1.32,19.38,19.38,0,0,1-7.84-.48,13.31,13.31,0,0,1-9.71-9.94A19.57,19.57,0,0,1,129,562a13.77,13.77,0,0,1,16.43-7.4,10.88,10.88,0,0,1,7,5.77,19.11,19.11,0,0,1,1.93,9.27c0,1.23-.46,1.68-1.7,1.66C149.5,571.24,146.39,571.29,143.27,571.29Zm-10.74-4.21h16.29a10,10,0,0,0-.5-3.59,7.18,7.18,0,0,0-9.2-5C134.89,559.58,133.43,562.9,132.53,567.08Z"/><path class="cls-1" d="M271.27,501.21c-3,0-6.07,0-9.1,0-1.18,0-1.49.34-1.41,1.52.37,5.3,4.12,8.85,9.84,9.15a23.34,23.34,0,0,0,7.56-1c1.56-.45,1.56-.45,2,1.16a10.9,10.9,0,0,0,.34,1.15c.33.91-.13,1.34-.91,1.59-4.64,1.5-9.34,2.15-14.12.82a13,13,0,0,1-9.28-8.88,19.4,19.4,0,0,1,.92-14.69,13.75,13.75,0,0,1,16.39-7.5c4,1.09,6.39,3.75,7.8,7.46a18.37,18.37,0,0,1,1.16,7.52c-.08,1.66-.09,1.69-1.83,1.71C277.5,501.23,274.39,501.21,271.27,501.21ZM277,497c0-4.8-2.23-9-7.8-8.94-4.48,0-7.92,3.75-8.28,8.94Z"/><path class="cls-1" d="M270.88,571.29c-3.11,0-6.23,0-9.34,0-1.09,0-1.32.39-1.26,1.42.27,5.34,4.17,9,10,9.25a23.56,23.56,0,0,0,7.32-1c1.65-.46,1.65-.47,2.05,1,.67,2.52.69,2.59-1.83,3.25a24.75,24.75,0,0,1-11.6.69c-5.49-1.16-9.11-4.38-10.68-9.78a19.27,19.27,0,0,1,1.38-14.64c3.38-6.61,10.4-8.64,16.7-6.77a10.6,10.6,0,0,1,6.48,5.68A18,18,0,0,1,282,569c0,2.26,0,2.27-2.22,2.28C276.79,571.3,273.84,571.29,270.88,571.29Zm-10.44-4.21h16c0-5.49-2.7-8.75-7.25-9S260.77,561.73,260.44,567.08Z"/><path class="cls-1" d="M307.27,511.87a12.22,12.22,0,0,1-9.76,4.41,8.83,8.83,0,0,1-8.46-5.57,9.66,9.66,0,0,1,2.27-10.4,15.79,15.79,0,0,1,7.9-3.72,30.3,30.3,0,0,1,6.44-.61c1.1,0,1.31-.51,1.27-1.48a6,6,0,0,0-5.75-6.2,14.91,14.91,0,0,0-7.48,1.21c-.58.23-1.06.7-1.72.71-1.86-4.18-1.82-3.53,2.08-5.09a18.66,18.66,0,0,1,9.22-.95,9.82,9.82,0,0,1,8.88,8.44,24,24,0,0,1,.4,4.05c.11,5.92-.16,11.84.28,17.75.06.8-.1,1.13-1,1.2C308.19,515.94,308.19,516,307.27,511.87Zm-.26-8.26c0-3.86,0-3.85-3.63-3.66a17.66,17.66,0,0,0-4.22.78,7.7,7.7,0,0,0-3.5,2c-2.89,3-1.73,8.22,2,9.19a7.81,7.81,0,0,0,9-4.66A11,11,0,0,0,307,503.61Z"/><path class="cls-1" d="M152.17,490.22l-.4-1.08c-.93-2.62-.92-2.59,1.74-3.69a19.92,19.92,0,0,1,10.12-1.26,9.77,9.77,0,0,1,8.85,8.45,24,24,0,0,1,.4,4.06c.11,5.91-.17,11.84.28,17.75.06.83-.16,1.11-1,1.17-3.62.29-3.61.32-4.58-3.68a12.7,12.7,0,0,1-6.9,4.09,11.46,11.46,0,0,1-6.15-.34c-6.07-2.09-7.79-10.21-3.21-15.06a13.76,13.76,0,0,1,6.17-3.53,30.79,30.79,0,0,1,8-1.14c1.81-.06,1.88-.18,1.68-2-.37-3.38-2.29-5.32-5.72-5.69a15,15,0,0,0-7.49,1.22C153.42,489.75,152.94,490.23,152.17,490.22Zm15.16,13.43c0-1.07,0-1.95,0-2.83s-.31-.95-1-.95A21.18,21.18,0,0,0,158.8,501a7.23,7.23,0,0,0-3.14,2.11c-2.43,2.95-1.3,7.69,2.1,8.77a7.86,7.86,0,0,0,9.32-4.81A11.33,11.33,0,0,0,167.33,503.65Z"/><path class="cls-1" d="M97.24,489.64c.45-.59.58-.77.72-.94,3.36-4.09,8.1-5.63,12.81-4.16,4.33,1.35,7,5.06,7.49,10.38.14,1.67.09,3.36.09,5,0,4.64,0,9.27,0,13.91,0,1.67,0,1.67-1.72,1.72-3.92.11-3.92.11-3.92-3.87,0-4.48,0-8.95,0-13.42a14.91,14.91,0,0,0-.55-4.74c-1.38-4.19-5.26-6-9.33-4.28-3.46,1.48-5.06,4.27-5.09,8,0,5.27,0,10.55,0,15.82,0,.56,0,1.12,0,1.68a.8.8,0,0,1-.88.88h-.48c-4.28.27-4.26.27-4.28-4,0-8.39.13-16.78-.14-25.17-.05-1.72,0-1.78,1.63-1.75,3.79.07,3.09-.74,3.53,3.22C97.13,488.31,97.16,488.7,97.24,489.64Z"/><path class="cls-1" d="M323.73,559.12c.69-.24,1-1,1.45-1.44a11.2,11.2,0,0,1,7.17-3.48c6.46-.58,11.16,3.18,12,9.62a28.93,28.93,0,0,1,.31,3.82c0,5.36,0,10.72,0,16.07,0,1.92,0,1.92-2,1.95-3.65.06-3.65.06-3.65-3.65,0-4.63,0-9.27,0-13.91a15.6,15.6,0,0,0-.48-4,6.78,6.78,0,0,0-10.36-4.32,8.07,8.07,0,0,0-4.15,7.35v15.59c0,.56,0,1.13,0,1.68.07.89-.27,1.26-1.21,1.34-4.45.39-4.42.42-4.45-4.07-.06-8.47.21-16.95-.19-25.42-.06-1.23.35-1.47,1.46-1.49,3.41-.06,3.4-.11,3.65,3.31C323.37,558.42,323.26,558.85,323.73,559.12Z"/><path class="cls-1" d="M135.38,475.82c0,2.71,0,5.1,0,7.49,0,1,.28,1.42,1.34,1.38,2.15-.06,4.3,0,6.48,0a12.92,12.92,0,0,1,.08,4.3c-2.2,0-4.35,0-6.5,0-1,0-1.41.31-1.4,1.36,0,5.35,0,10.71.06,16.07a9.37,9.37,0,0,0,.21,1.9,3.58,3.58,0,0,0,3.82,3.23c1,0,2.06,0,3.25,0,.35.23.16.76.19,1.2.25,3.08.24,3.11-2.89,3.45a15.29,15.29,0,0,1-2.87,0,7.12,7.12,0,0,1-6.86-6,20.16,20.16,0,0,1-.45-4.52q0-7.44,0-14.87c0-1.86,0-1.86-1.77-1.89h-.24c-.86-.1-2,.43-2.51-.26-.67-.88-.2-2.15-.25-3.24a.7.7,0,0,1,.73-.77c.23,0,.48,0,.71,0,1-.06,2.32.43,3-.22s.22-2.12.32-3.21c.12-1.26-.49-2.76.26-3.73s2.34-.83,3.55-1.19Z"/><path class="cls-1" d="M346.1,475.88c0,2.6.06,5,0,7.35,0,1.19.39,1.51,1.51,1.47,2.08-.08,4.15,0,6.27,0,.47,1.4.14,2.73.28,4.3-2.3,0-4.44.06-6.57,0-1.2-.05-1.49.42-1.48,1.53,0,5.19,0,10.39,0,15.59a11,11,0,0,0,.22,2.14c.44,2.26,1.67,3.27,4,3.32,1,0,2.06,0,3.17,0,0,.5.09,1.05.15,1.6.27,2.84.39,2.38-2.38,3a12.45,12.45,0,0,1-3.34.14c-3.83-.28-6.13-2.35-7-6.12a19.24,19.24,0,0,1-.42-4.28q0-7.56,0-15.12c0-1.68,0-1.68-1.69-1.72h-1c-2.45,0-2.11.13-2.13-2.24,0-2.13-.14-2.09,2.1-2.06.48,0,1,0,1.44,0,.88.06,1.31-.21,1.26-1.21-.07-1.59.05-3.2,0-4.79A1.48,1.48,0,0,1,342,476.9C343.26,476.65,344.54,476.27,346.1,475.88Z"/><path class="cls-1" d="M174.33,563.06q0,10.31,0,20.61c0,2,0,2-1.93,2-3.72.07-3.72.07-3.72-3.58V543.29c0-.56,0-1.12,0-1.68-.06-.88.22-1.34,1.2-1.29a26.89,26.89,0,0,0,3.11,0c1.08-.07,1.38.41,1.36,1.41,0,3.12,0,6.23,0,9.35Z"/><path class="cls-1" d="M196.6,563.06q0,10.43,0,20.85c0,1.73,0,1.79-1.67,1.77-4.83,0-3.94.65-3.95-3.82-.05-12.85,0-25.71,0-38.57,0-.56,0-1.12,0-1.68,0-.88.26-1.34,1.23-1.29a26.89,26.89,0,0,0,3.11,0c1.1-.08,1.33.45,1.32,1.42,0,4.07,0,8.14,0,12.22Z"/><path class="cls-1" d="M322.75,493q0-10.31,0-20.61c0-2.13,0-2.13,2-2.15,3.65,0,3.65,0,3.65,3.65v38.82a11.53,11.53,0,0,0,0,1.44c.13,1.2-.49,1.44-1.56,1.47-4.11.14-4.11.17-4.11-3.93Z"/><path class="cls-1" d="M188.92,492.75q0,10.42,0,20.85c0,2,0,2-1.92,2-4.44,0-3.69.59-3.7-3.59,0-12.94,0-25.88,0-38.81,0-.56,0-1.12,0-1.68-.05-.89.28-1.35,1.24-1.28.55.05,1.12,0,1.67,0,3,0,2.73-.43,2.73,2.62Q188.93,482.82,188.92,492.75Z"/><path class="cls-1" d="M296.07,570c0-4.48,0-9,0-13.44,0-1.81,0-1.81,1.87-1.84,3.77-.08,3.77-.08,3.77,3.76q0,12.6,0,25.19c0,1.95,0,2-2,2-4.4,0-3.62.58-3.67-3.64C296,578,296.07,574,296.07,570Z"/><path class="cls-1" d="M299,542.64a3.46,3.46,0,1,1-3.57,3.38A3.38,3.38,0,0,1,299,542.64Z"/><path class="cls-6" d="M234.47,125.57c.22-.24-.2-.2.11-.11.08,0,0,.14-.14.06Z"/></g></g></svg>